<svg xmlns="http://www.w3.org/2000/svg" width="840" height="170" viewBox="0 0 840 170">
  <defs>
    <linearGradient id="bg" x1="0" y1="0" x2="0" y2="1">
      <stop offset="0%" stop-color="#0d0221" stop-opacity="0.96"/>
      <stop offset="100%" stop-color="#0d0221" stop-opacity="1"/>
    </linearGradient>

    <linearGradient id="bg2" x1="0" y1="0" x2="0" y2="1">
      <stop offset="0%" stop-color="#1a1a2e" stop-opacity="0.96"/>
      <stop offset="100%" stop-color="#1a1a2e" stop-opacity="1"/>
    </linearGradient>

    <linearGradient id="bg3" x1="0" y1="0" x2="0" y2="1">
      <stop offset="0%" stop-color="#111111" stop-opacity="0.96"/>
      <stop offset="100%" stop-color="#111111" stop-opacity="1"/>
    </linearGradient>

    <radialGradient id="g1" cx="50%" cy="50%" r="50%">
      <stop offset="0%" stop-color="#79c0ff" stop-opacity="0.35"/>
      <stop offset="60%" stop-color="#79c0ff" stop-opacity="0.08"/>
      <stop offset="100%" stop-color="#79c0ff" stop-opacity="0"/>
    </radialGradient>

    <radialGradient id="g2" cx="50%" cy="50%" r="50%">
      <stop offset="0%" stop-color="#79c0ff" stop-opacity="0.35"/>
      <stop offset="60%" stop-color="#79c0ff" stop-opacity="0.08"/>
      <stop offset="100%" stop-color="#79c0ff" stop-opacity="0"/>
    </radialGradient>

    <radialGradient id="g3" cx="50%" cy="50%" r="50%">
      <stop offset="0%" stop-color="#f0d070" stop-opacity="0.35"/>
      <stop offset="60%" stop-color="#f0d070" stop-opacity="0.08"/>
      <stop offset="100%" stop-color="#f0d070" stop-opacity="0"/>
    </radialGradient>
  </defs>

  <!-- Badge 1: rare, cyberpunk theme, midnight-coder -->
  <g transform="translate(10, 5)">
    <rect width="200" height="160" fill="url(#bg)" rx="14"/>
    <rect x="0.5" y="0.5" width="199" height="159" fill="none" stroke="#54aeff" stroke-width="1" rx="13.5" opacity="0.5"/>
    <circle cx="100" cy="58" r="50" fill="url(#g1)"/>
    <circle cx="100" cy="58" r="40" fill="#0d0221" stroke="#54aeff" stroke-width="1.5"/>
    <g transform="translate(82,40)" color="#54aeff">
      <svg width="36" height="36" viewBox="0 0 24 24">
        <path d="M21 12.79A9 9 0 1111.21 3 7 7 0 0021 12.79z" stroke="currentColor" stroke-width="1.5" fill="none"/>
      </svg>
    </g>
    <rect x="68" y="108" width="64" height="14" rx="7" fill="#54aeff" opacity="0.18"/>
    <text x="100" y="118" fill="#54aeff" font-family="monospace" font-size="8" font-weight="bold" text-anchor="middle" letter-spacing="1.2">RARE</text>
    <text x="100" y="138" fill="#05d9e8" font-family="monospace" font-size="10.5" font-weight="600" text-anchor="middle">午夜编码者</text>
    <text x="100" y="152" fill="#3d1a5e" font-family="monospace" font-size="7.5" text-anchor="middle">月亮不睡我不睡</text>
  </g>

  <!-- Badge 2: rare, pixel theme, force-push-warrior -->
  <g transform="translate(220, 5)">
    <rect width="200" height="160" fill="url(#bg2)" rx="14"/>
    <rect x="0.5" y="0.5" width="199" height="159" fill="none" stroke="#54aeff" stroke-width="1" rx="13.5" opacity="0.5"/>
    <circle cx="100" cy="58" r="50" fill="url(#g2)"/>
    <circle cx="100" cy="58" r="40" fill="#1a1a2e" stroke="#54aeff" stroke-width="1.5"/>
    <g transform="translate(82,40)" color="#54aeff">
      <svg width="36" height="36" viewBox="0 0 24 24">
        <polygon points="13,2 3,14 12,14 11,22 21,10 12,10" stroke="currentColor" stroke-width="1.5" fill="none"/>
      </svg>
    </g>
    <rect x="68" y="108" width="64" height="14" rx="7" fill="#54aeff" opacity="0.18"/>
    <text x="100" y="118" fill="#54aeff" font-family="monospace" font-size="8" font-weight="bold" text-anchor="middle" letter-spacing="1.2">RARE</text>
    <text x="100" y="138" fill="#00ff41" font-family="monospace" font-size="10.5" font-weight="600" text-anchor="middle">Git Force Push勇士</text>
    <text x="100" y="152" fill="#336633" font-family="monospace" font-size="7.5" text-anchor="middle">--force 是我的日常</text>
  </g>

  <!-- Badge 3: common, pixel theme, works-on-my-machine -->
  <g transform="translate(430, 5)">
    <rect width="200" height="160" fill="url(#bg2)" rx="14"/>
    <rect x="0.5" y="0.5" width="199" height="159" fill="none" stroke="#57606a" stroke-width="1" rx="13.5" opacity="0.5"/>
    <circle cx="100" cy="58" r="50" fill="none"/>
    <circle cx="100" cy="58" r="40" fill="#1a1a2e" stroke="#57606a" stroke-width="1.5"/>
    <g transform="translate(82,40)" color="#57606a">
      <svg width="36" height="36" viewBox="0 0 24 24">
        <path d="M20 6L9 17l-5-5" stroke="currentColor" stroke-width="2" fill="none" stroke-linecap="round" stroke-linejoin="round"/>
      </svg>
    </g>
    <rect x="64" y="108" width="72" height="14" rx="7" fill="#57606a" opacity="0.18"/>
    <text x="100" y="118" fill="#57606a" font-family="monospace" font-size="8" font-weight="bold" text-anchor="middle" letter-spacing="1.2">COMMON</text>
    <text x="100" y="138" fill="#00ff41" font-family="monospace" font-size="10.5" font-weight="600" text-anchor="middle">在我机器上能运行</text>
    <text x="100" y="152" fill="#336633" font-family="monospace" font-size="7.5" text-anchor="middle">态度即正义</text>
  </g>

  <!-- Badge 4: legendary, glitch theme, true-destroyer -->
  <g transform="translate(640, 5)">
    <rect width="200" height="160" fill="url(#bg3)" rx="14"/>
    <rect x="0.5" y="0.5" width="199" height="159" fill="none" stroke="#d4a72c" stroke-width="1" rx="13.5" opacity="0.5"/>
    <circle cx="100" cy="58" r="50" fill="url(#g3)"/>
    <circle cx="100" cy="58" r="40" fill="#111111" stroke="#d4a72c" stroke-width="1.5"/>
    <g transform="translate(82,40)" color="#d4a72c">
      <svg width="36" height="36" viewBox="0 0 24 24">
        <circle cx="12" cy="10" r="8" stroke="currentColor" stroke-width="1.5" fill="none"/>
        <circle cx="9" cy="9" r="2" fill="currentColor"/>
        <circle cx="15" cy="9" r="2" fill="currentColor"/>
      </svg>
    </g>
    <rect x="52" y="108" width="96" height="14" rx="7" fill="#d4a72c" opacity="0.18"/>
    <text x="100" y="118" fill="#d4a72c" font-family="monospace" font-size="8" font-weight="bold" text-anchor="middle" letter-spacing="1.2">LEGENDARY</text>
    <text x="100" y="138" fill="#ffffff" font-family="monospace" font-size="10.5" font-weight="600" text-anchor="middle">真·破坏王</text>
    <text x="100" y="152" fill="#888888" font-family="monospace" font-size="7.5" text-anchor="middle">连续3次搞挂CI</text>
  </g>
</svg>
